<?xml version="1.0" encoding="UTF-8"?>
<svg width="740px" height="400px" viewBox="0 0 740 400" version="1.1" xmlns="http://www.w3.org/2000/svg" xmlns:xlink="http://www.w3.org/1999/xlink">
    <title>Artboard</title>
    <g id="Artboard" stroke="none" stroke-width="1" fill="none" fill-rule="evenodd">
        <g id="jsbin" transform="translate(24.000000, 21.000000)" fill-rule="nonzero">
            <g id="Group" transform="translate(8.752800, 107.413417)">
                <path d="M9.96099999e-06,51.6163635 L9.96099999e-06,198.558381 C9.96099999e-06,227.066013 53.166339,250.178729 118.750152,250.178729 C184.334961,250.178729 237.500284,227.066013 237.500284,198.558381 L237.500284,51.6163635 C237.500284,51.6163635 232.56057,101.793359 118.750152,101.793359 C4.93772203,101.794366 9.96099999e-06,51.6163635 9.96099999e-06,51.6163635 L9.96099999e-06,51.6163635 Z" id="Path" fill="#9EAAB2"></path>
                <ellipse id="Oval" fill="#8E979A" cx="118.750142" cy="51.6163735" rx="118.750132" ry="51.6163735"></ellipse>
                <path d="M9.96099999e-06,51.6163635 L9.96099999e-06,198.558381 C9.96099999e-06,227.066013 53.166339,250.178729 118.750152,250.178729 C184.334961,250.178729 237.500284,227.066013 237.500284,198.558381 L237.500284,51.6163635 C237.500284,51.6163635 232.56057,101.793359 118.750152,101.793359 C4.93772203,101.794366 9.96099999e-06,51.6163635 9.96099999e-06,51.6163635 L9.96099999e-06,51.6163635 Z" id="Path" fill="#9EAAB2"></path>
                <path d="M221.618323,76.0977431 C224.969214,73.5327626 228.237457,70.9657799 230.706811,67.492348 C232.124274,65.4941534 233.291714,63.3674708 234.38844,61.2009338 C235.602687,59.0901789 236.644607,56.9067081 237.499278,54.656488 L237.499278,198.559377 C237.499278,211.777733 226.063938,223.835642 207.264383,232.966963 L207.264383,84.7658733 C212.334578,82.377194 217.172669,79.4984591 221.618313,76.0977332 L221.618323,76.0977431 Z" id="Path" fill="#8E979A"></path>
                <path d="M15.881971,76.0977431 C12.5290683,73.5327626 9.26282712,70.9657799 6.793473,67.492348 C5.37302164,65.4941534 4.20657806,63.3674708 3.11084825,61.2009338 C1.89659144,59.0901789 0.855657588,56.9067081 -6.32827124e-15,54.656488 L-6.32827124e-15,198.559377 C-6.32827124e-15,211.777733 11.4353307,223.835642 30.2338988,232.966963 L30.2338988,84.7658733 C25.1656965,82.377194 20.3265992,79.4984591 15.8819611,76.0977332 L15.881971,76.0977431 Z" id="Path" fill="#8E979A"></path>
                <path d="M118.750152,246.320809 C54.7840099,246.320809 2.64766755,224.945327 0.175325136,198.18483 C0.113566381,198.844244 0.072725914,199.507663 0.072725914,200.171062 C0.072725914,227.855918 53.2061734,250.297276 118.750152,250.297276 C184.294121,250.297276 237.427578,227.855918 237.427578,200.171062 C237.427578,199.507663 237.389736,198.844244 237.324979,198.18483 C234.851641,224.945287 182.716284,246.320809 118.750152,246.320809 L118.750152,246.320809 Z" id="Path" fill="#8E979A"></path>
                <path d="M118.750152,99.7513462 C54.7840099,99.7513462 2.64766755,78.3778365 0.175325136,51.6173796 C0.113566381,52.2767937 0.072725914,52.9382101 0.072725914,53.6056031 C0.072725914,81.289473 53.2061734,103.729825 118.750152,103.729825 C184.294121,103.729825 237.427578,81.289463 237.427578,53.6056031 C237.427578,52.9382101 237.389736,52.2767937 237.324979,51.6173796 C234.851641,78.3778365 182.716284,99.7513462 118.750152,99.7513462 L118.750152,99.7513462 Z" id="Path" fill="#DBE1E3"></path>
                <path d="M118.750152,229.876036 C54.7840099,229.876036 2.64766755,208.502527 0.175325136,181.74207 C0.113566381,182.403486 0.072725914,183.0629 0.072725914,183.730303 C0.072725914,211.414153 53.2061734,233.854486 118.750152,233.854486 C184.294121,233.854486 237.427578,211.414163 237.427578,183.730303 C237.427578,183.0629 237.389736,182.403486 237.324979,181.74207 C234.851641,208.502527 182.716284,229.876036 118.750152,229.876036 L118.750152,229.876036 Z" id="Path" fill="#DBE1E3"></path>
            </g>
            <g id="Group" transform="translate(19.089422, 100.251383)">
                <path d="M216.827039,56.091891 C216.827039,60.6381323 214.866697,64.7361145 211.249815,68.8211573 C204.092773,76.9075798 156.723808,95.6553463 109.148648,95.6952705 C61.0853852,95.7370272 12.8099611,76.9892607 5.5762179,68.8211573 C1.9523835,64.7331362 -6.24500451e-15,60.644099 -6.24500451e-15,56.091891 C-6.24500451e-15,33.4612819 48.539393,15.1159633 108.41352,15.1159633 C168.287656,15.1169494 216.827039,33.4612819 216.827039,56.091891 L216.827039,56.091891 Z" id="Path" fill="#1A2B2F"></path>
                <path d="M5.57523175,7.1610372 C22.6824069,19.0954185 66.1974263,30.2348949 108.412514,30.2348949 C150.627621,30.2348949 196.530333,18.697971 211.248839,7.1610372 L211.248839,-1.88737914e-15 C211.248839,-1.88737914e-15 178.992819,20.6393774 108.412514,20.6393774 C37.8302356,20.6393774 5.57523175,-1.88737914e-15 5.57523175,-1.88737914e-15 L5.57523175,7.1610372 L5.57523175,7.1610372 Z" id="Path" fill="#1B3134"></path>
                <path d="M211.250811,64.6664068 C211.250811,64.6664068 190.342475,94.1044047 108.41351,94.1044047 C26.4825525,94.1044047 5.57620793,64.6664068 5.57620793,64.6664068 L5.57620793,0.749093857 C5.57620793,0.749093857 35.1795698,20.9063645 105.992965,20.9063645 C176.805364,20.9063645 211.250811,0.749093857 211.250811,0.749093857 L211.250811,64.6664068 L211.250811,64.6664068 L211.250811,64.6664068 Z" id="Path" fill="#213F48"></path>
                <path d="M108.373685,90.9576965 C56.741374,90.9497276 14.0610939,76.0120778 5.57623782,58.7783869 L5.57623782,68.8211573 C5.57623782,68.8211573 26.4716153,97.0488928 108.332845,97.0688349 L108.332845,97.0688349 L108.373685,97.0688349 L108.413549,97.0688349 L108.413549,97.0688349 C190.277757,97.0488928 211.249855,68.8211573 211.249855,68.8211573 L211.249855,58.7783869 C202.764959,76.0120778 160.006006,90.9497276 108.373695,90.9576965 L108.373685,90.9576965 Z" id="Path" fill="#1B3134"></path>
            </g>
            <g id="Group">
                <path d="M127.502952,118.789987 C58.7813852,118.789987 2.76719066,97.4144847 0.109571984,70.6540078 C0.0438287938,71.3134319 0.000996108949,71.9768405 0.000996108949,72.6422412 C0.000996108949,100.327097 57.0860078,122.76744 127.502952,122.76744 C197.919885,122.76744 255.004867,100.327097 255.004867,72.6422412 C255.004867,71.9768405 254.962054,71.3134319 254.895325,70.6540078 C252.238713,97.4144847 196.224518,118.789987 127.502952,118.789987 L127.502952,118.789987 Z" id="Path" fill="#8E979A"></path>
                <path d="M127.502952,0 C57.0860078,0 0.000996108949,22.4423346 0.000996108949,50.1261946 L0.000996108949,72.0067337 C0.000996108949,99.6885914 57.0860078,122.130926 127.502952,122.130926 C197.919885,122.130926 255.004867,99.6885914 255.004867,72.0067337 L255.004867,50.1261946 C255.004867,22.4423346 197.919885,0 127.502952,0 L127.502952,0 Z" id="Path" fill="#9EAAB2"></path>
                <path d="M127.240965,16.9089494 C146.084378,16.9089494 163.443549,19.4978366 176.614101,23.7611829 L195.484389,16.9089494 L200.053551,36.3510139 L143.059185,36.3510139 L142.333022,36.2035897 L162.59587,28.8493174 C153.275288,25.7344847 140.84085,23.8299244 127.293759,23.8299244 C116.436181,23.8299244 106.26292,25.0631172 97.8517765,27.1718699 L79.1308949,23.3707181 C92.2625992,19.2806948 109.207409,16.9089494 127.240965,16.9089494 L127.240965,16.9089494 Z M53.5468327,34.8100233 C54.1793619,31.9780856 61.120249,29.7199066 69.0612296,29.7199066 C77.0002179,29.7199066 83.1382412,31.9790817 82.7656965,34.8100233 C82.3871751,37.6927626 75.4243735,40.0674867 67.2224125,40.0674867 C59.0214475,40.0684825 52.9023502,37.6927626 53.5468327,34.8100233 L53.5468327,34.8100233 Z M127.557728,70.7267337 C105.343482,70.7267337 85.6663458,67.1945214 72.1043325,61.6541634 L47.1119589,70.7267337 L52.2947138,47.0442335 L111.93076,47.0442335 L112.201702,47.1030139 L89.1766338,55.4593718 C98.7004314,59.2017532 112.281391,61.5704903 127.485988,61.5704903 C139.981188,61.5704903 151.300971,59.9856809 160.159377,57.3669105 L181.97515,62.0386615 C168.726911,67.2881656 149.600633,70.7267337 127.557728,70.7267337 L127.557728,70.7267337 Z M189.476866,54.4244146 C180.911325,54.4244146 173.591907,51.8325391 173.135699,48.6937998 C172.689442,45.6098465 179.045613,43.1534419 187.321286,43.1534419 C195.600944,43.1534419 202.897452,45.6098465 203.6276,48.6937998 C204.371673,51.8325391 198.041401,54.4244146 189.476866,54.4244146 L189.476866,54.4244146 Z" id="Shape" fill="#DBE1E3"></path>
                <path d="M216.017193,108.079823 L216.017193,83.7608193 C216.017193,83.7608193 250.528384,73.1532551 255.004867,50.1262045 L255.004867,72.0067437 C255.004867,86.1723891 240.052306,98.9644302 216.017193,108.079823 L216.017193,108.079823 Z" id="Path" fill="#8E979A"></path>
                <path d="M38.9867082,108.079823 L38.9867082,83.4948582 C11.8357665,75.0090061 1.22621012,59.6250895 0,50.1262045 L0,72.0067437 C0.000996108949,86.1723891 14.9525914,98.9644302 38.9867082,108.079823 L38.9867082,108.079823 Z" id="Path" fill="#8E979A"></path>
                <path d="M127.502952,96.2739399 C58.7813852,96.2739399 2.76719066,74.898438 0.109571984,48.1379611 C0.0438287938,48.7983813 0.000996108949,49.4597977 0.000996108949,50.1271907 C0.000996108949,77.8100744 57.0860078,100.251403 127.502952,100.251403 C197.919885,100.251403 255.004867,77.8100744 255.004867,50.1271907 C255.004867,49.4597977 254.962054,48.7983813 254.895325,48.1379611 C252.238713,74.898438 196.224518,96.2739399 127.502952,96.2739399 L127.502952,96.2739399 Z" id="Path" fill="#DBE1E3"></path>
            </g>
            <g id="Group" transform="translate(59.208716, 136.151159)">
                <g transform="translate(102.359170, 0.000000)">
                    <path d="M33.8248716,19.0485915 C33.8248716,28.7975097 26.6927316,36.7026403 16.9119378,36.7026403 C7.13215004,36.7026403 -2.22044605e-16,28.7975197 -2.22044605e-16,19.0485915 C-2.22044605e-16,9.29768095 7.13214008,1.39554865 16.9119378,1.39554865 C26.6927316,1.39554865 33.8248716,9.29768095 33.8248716,19.0485915 L33.8248716,19.0485915 Z" id="Path" fill="#1B3134"></path>
                    <circle id="Oval" fill="#51C3F1" cx="16.9129239" cy="15.5363113" r="15.5363113"></circle>
                    <circle id="Oval" fill="#FFFFFF" cx="16.9119278" cy="13.1376809" r="5.06820233"></circle>
                </g>
                <g transform="translate(-0.000000, 0.000996)">
                    <path d="M33.8258677,19.0475954 C33.8258677,28.7965136 26.6937277,36.7016442 16.9129339,36.7016442 C7.13413229,36.7016442 1.55431223e-15,28.7965236 1.55431223e-15,19.0475954 C1.55431223e-15,9.29668485 7.13313618,1.39455255 16.9129339,1.39455255 C26.6937277,1.39455255 33.8258677,9.29668485 33.8258677,19.0475954 L33.8258677,19.0475954 Z" id="Path" fill="#1B3134"></path>
                    <circle id="Oval" fill="#51C3F1" cx="17.0683269" cy="15.5353152" r="15.5353152"></circle>
                    <circle id="Oval" fill="#FFFFFF" cx="16.91393" cy="13.1366848" r="5.06820233"></circle>
                </g>
            </g>
            <path d="M128.239076,326.028451 C122.940763,326.028451 117.612576,325.750547 109.231315,325.040311 C105.303668,324.703646 102.106148,321.192332 102.106148,317.203922 L102.106148,237.542111 C102.106148,233.828617 104.919169,231.026572 108.650594,231.026572 C108.856788,231.026572 109.069946,231.036514 109.281131,231.054444 C117.630516,231.763683 122.946739,232.041588 128.239086,232.041588 C133.530417,232.041588 138.845644,231.763683 147.199024,231.053447 C147.408217,231.035508 147.620378,231.026572 147.826572,231.026572 C151.556004,231.026572 154.371018,233.827611 154.371018,237.542111 L154.371018,317.203922 C154.371018,321.192342 151.172502,324.703646 147.244845,325.040311 C138.861592,325.750517 133.534391,326.028451 128.239086,326.028451 L128.239076,326.028451 Z M108.650594,235.004819 C107.114604,235.004819 106.084627,236.023035 106.084627,237.542101 L106.084627,317.203912 C106.084627,319.108492 107.712259,320.917406 109.569016,321.075808 C117.827745,321.776042 123.062298,322.050968 128.239086,322.050968 C133.412856,322.050968 138.647419,321.777048 146.90815,321.075808 C148.763911,320.918402 150.392539,319.108482 150.392539,317.203912 L150.392539,237.542101 C150.392539,235.931393 149.19423,234.868555 147.539683,235.018967 C139.0618,235.738138 133.651932,236.019061 128.239086,236.019061 C122.825224,236.019061 117.41436,235.738148 108.939465,235.018967 C108.841837,235.008996 108.743222,235.004819 108.650584,235.004819 L108.650594,235.004819 Z" id="Shape" fill="#DBE1E3"></path>
            <g id="Group" transform="translate(163.268234, 231.588338)">
                <path d="M62.0954397,-3.38618023e-15 C52.6513407,6.12107953 35.072,17.5135875 2.22044605e-16,25.416706 C5.03733292,52.1502879 5.03733292,52.1502879 11.6604414,87.1894163 C23.7940644,83.5785214 49.0434241,76.058885 69.4994976,59.1947704 C67.1656243,39.6053018 65.2939455,24.3698054 62.0954397,-3.38618023e-15" id="Path" fill="#F5DD3E"></path>
                <path d="M39.2447004,70.4050005 C32.3326904,74.2181055 27.6081457,68.6777376 27.6081457,68.6777376 L31.6892041,64.7998755 C31.6892041,64.7998755 33.965313,67.7354285 37.7256243,65.2322067 C39.4867349,64.0607925 38.3382413,58.1936909 38.3382413,58.1936909 L34.9574475,42.0616965 L40.2776554,39.8184791 C40.2776554,39.8184791 43.5030662,58.4467026 43.8397609,60.3104224 C44.4692918,63.7997821 44.9882546,67.2343657 39.2447004,70.4049905 L39.2447004,70.4050005 Z" id="Path" fill="#3B3735"></path>
                <path d="M53.5737376,62.254837 C49.6809538,62.8425413 47.4805392,59.9398699 47.4805392,59.9398699 L51.0296654,55.5958487 C51.0296654,55.5958487 52.3674596,57.0800411 54.2251928,56.8021366 C55.8010372,56.5610783 57.6508115,55.5121656 58.2963001,53.531891 C59.3960044,50.1411461 58.3769749,48.9796931 54.9234851,49.3641812 C51.4739499,49.7496654 47.1349093,50.2557186 46.3668794,43.4512784 C45.6855508,37.4158643 50.9619399,32.7988893 54.5339866,32.1713307 C58.0781522,31.5507648 60.0554185,34.0529905 60.0554185,34.0529905 L56.521224,38.3432417 C56.521224,38.3432417 54.1764134,37.2773952 52.7669093,38.5394652 C51.4848971,39.689971 50.9918332,41.1911271 51.4799465,42.3316619 C51.9072672,43.3307493 53.1982145,43.7710493 55.2711371,43.6176585 C57.345036,43.4682222 60.7596775,42.2619343 62.8614873,46.4914129 C65.2252439,51.2418664 62.7628725,60.8702456 53.5737575,62.254847 L53.5737376,62.254837 Z" id="Path" fill="#3B3735"></path>
            </g>
        </g>
        <text id="jsbin.com" font-family="UbuntuNerdFontComplete-, Ubuntu Nerd Font" font-size="98" font-weight="normal" letter-spacing="-5.323567" fill="#000000">
            <tspan x="332" y="228">jsbin.com</tspan>
        </text>
    </g>
</svg>