<svg xmlns="http://www.w3.org/2000/svg" viewBox="0 0 376.78 281.6"><defs><style>.cls-1{fill:#028844;}.cls-2{fill:#e22922;}.cls-3{fill:#0076d6;}.cls-4{fill:#ffd500;}</style></defs><title>Asset 1</title><g id="Layer_2" data-name="Layer 2"><g id="Layer_1-2" data-name="Layer 1"><g id="Legal_General" data-name="Legal &amp; General"><path class="cls-1" d="M334.22,56.41c-22.05-26.18-54.68-40.84-89.54-40.23l-1.47,0,1.32-.65c38.93-19,84.7-15.7,119.45,8.65l.48.33-.53.23c-1.24.55-2.47,1.14-3.67,1.78A53.64,53.64,0,0,0,334.78,56.3l-.19.55Z"/><path class="cls-2" d="M221,116.78a53.68,53.68,0,0,0-27.4,0,54.37,54.37,0,0,0-11.52,4.51c-1.19.64-2.37,1.32-3.51,2l-.5.31v-.58c-.75-42.43,22.1-82.23,59.63-103.87l1.28-.73-.85,1.21c-20,28.55-26.09,63.8-16.72,96.72l.16.55Z"/><path class="cls-3" d="M279,95.87A60.25,60.25,0,0,0,249,100.65c-1.48.64-2.95,1.36-4.37,2.11a59.91,59.91,0,0,0-16.43,12.79l-.38.42-.18-.54A114.36,114.36,0,0,1,240.55,19l.31-.49,38.68,77.41Z"/><path class="cls-4" d="M242.22,17.78l.58,0a114.37,114.37,0,0,1,87.14,43.26l.35.45-.57.08a59.94,59.94,0,0,0-19.78,6.46c-1.42.76-2.83,1.58-4.2,2.45a60.33,60.33,0,0,0-20.69,22.12l-.28.52Z"/><path d="M371.24,21.85C336.05-3.57,286-7.85,242.2,14.51h0l-8-12.23A.94.94,0,0,0,232.93,2a1,1,0,0,0-.45,1.25l5.67,13.46c-43,23.81-67.46,67.7-66.07,111.09.07,2.33.23,4.66.45,7a48.51,48.51,0,0,1,49.95-12.23l.62.2q2.28.8,4.52,1.82c.77-1.13,1.59-2.23,2.45-3.3.29-.37.58-.73.88-1.09A54.77,54.77,0,0,1,247,107.24c1.3-.7,2.65-1.35,4-1.94a54.72,54.72,0,0,1,31-3.9l45,84.53a15.09,15.09,0,0,0,12.9,8,15.56,15.56,0,0,0,1.93-.06,15.05,15.05,0,0,0,11.76-22L351,166.86a3.27,3.27,0,1,0-5.78,3.07l2.62,4.94A8.5,8.5,0,0,1,335.66,186l-.05,0-.44-.32a13.89,13.89,0,0,1-2.74-3.51L287.88,98.32a54.73,54.73,0,0,1,20.58-23.54q1.91-1.22,3.86-2.26A55,55,0,0,1,332,66.4c.46-.05.93-.08,1.39-.12,1.37-.12,2.74-.18,4.11-.19.27-1.61.61-3.2,1-4.76l.18-.63a48.57,48.57,0,0,1,24-29.69,47.74,47.74,0,0,1,6.21-2.76,48.82,48.82,0,0,1,7.91-2.12C375,24.65,373.13,23.21,371.24,21.85ZM221.11,116.47A54,54,0,0,0,178.42,123c-.73-41,21-81.38,59.46-103.57C218.26,47.48,211.62,83.13,221.11,116.47ZM279,95.55h0Zm-.91-1.81.9,1.8a61.22,61.22,0,0,0-51,19.79c-10.46-32.64-5.18-67.85,12.82-96.16Zm8.19,8.53Zm19.3-32a60.44,60.44,0,0,0-20.81,22.24l-1-1.75-41-72.58a114.38,114.38,0,0,1,86.89,43.13A60.79,60.79,0,0,0,305.57,70.22Zm44.3-36.89a53.51,53.51,0,0,0-15.4,22.87c-22.33-26.52-55.59-40.95-89.79-40.35C284.6-3.64,330.21,1,363.79,24.47A54,54,0,0,0,349.87,33.33Z"/><polygon points="278.98 95.54 278.99 95.55 278.98 95.54 278.98 95.54"/><path d="M279,95.55h0Z"/><polygon points="286.27 102.27 286.27 102.27 286.27 102.27 286.27 102.27"/><path d="M302.8,203.06c-5.92-1.77-14.24-6.57-22.62-12.78a60,60,0,0,0,4.26-8.43c2.65-6.48,3.87-9.76,9.87-10.37V168.7c-3.26.15-6.65.2-10.08.2-3.26,0-6.56-.05-9.87-.2v2.78c2.24.52,4.61.72,6.83,1.38,0,2.59-1.44,7.13-2.71,10.2a41.36,41.36,0,0,1-2.2,4.19c-7.68-6.16-15-13.4-20-20.5,7.23-3.41,15.67-7.52,15.67-16.23,0-8.33-6-12.64-14.43-12.64-9.21,0-16.92,6.74-16.92,15.43A30.36,30.36,0,0,0,244,166.55c-8.32,4.2-13.93,9.32-13.93,18.9,0,14,11.26,20.76,23.81,20.76A28,28,0,0,0,275.13,197c9.46,5.51,19.28,9.08,27.17,9.4ZM256.31,143c5,0,6.65,3.94,6.65,8.37,0,5.81-4.79,8.88-9.53,11-2.39-4.21-3.79-8.26-3.79-11.95S252.37,143,256.31,143Zm13.09,52.08a20.24,20.24,0,0,1-11.84,3.81c-8.43,0-15.69-6.46-15.69-16.23a12.72,12.72,0,0,1,5.24-10.77c5.61,8.33,14.16,16.18,23.45,22.26A13.11,13.11,0,0,1,269.4,195.07Z"/><path d="M267.91,249.91c-.71-2.67-2-5.74-5.25-5.74-2.45,0-5.33,2.08-7.2,3.66v22.65c0,7.35,3.18,6.33,9.07,7v2.88c-5.18,0-10.46-.21-15.6-.21-3.87,0-7.7,0-11.59.21v-2.88l6.18-1V249.05c0-3.23-.27-5.9-4.39-5.9a23,23,0,0,0-2.35.08v-2.8c3-.73,6-1.51,9-2.29,2-.61,4.75-1.59,6.7-1.59,3,0,2.94,3.88,2.94,6v1c2.88-3.17,7.4-7.25,12-7.25,4.18,0,7.48,2.29,7.48,6.75C275,246.75,271.5,249.85,267.91,249.91Z"/><path d="M181.53,280.11c-4.07,0-8.16,0-12.21.21v-2.88l6-1V254.87c0-4.81-.13-10.92-6.61-10.92-3.25,0-8.13,1.66-10.93,3.29V272c0,4.62,1.65,5,5.9,5.46v2.88c-4.17,0-8.35-.21-12.43-.21-3.91,0-7.77,0-11.66.21v-2.88l6.19-1V249.56c0-3.44-.06-6.41-4.33-6.41a23.26,23.26,0,0,0-2.36.08v-2.8c3-.73,6-1.51,9.05-2.29,2.73-.74,5-1.59,6.68-1.59,3.48,0,3,4.52,3,6.82,4.73-2.87,12.43-6.82,18-6.82,3.63,0,6.34.78,8.74,3.59,2.89,3.31,2.7,8.77,2.7,13v18.67c0,6,3.13,5,7.65,5.68v2.88C190.47,280.32,186,280.11,181.53,280.11Z"/><path d="M94.08,252.31c-4.45,0-6.24,1.2-6.24,5.88v18.53a63,63,0,0,1-24.65,4.88c-19.77,0-32.91-13.78-32.91-33a34.13,34.13,0,0,1,34.48-34.3,66,66,0,0,1,22.7,4.3l-.13,16.49H84.52c-.93-5-2.65-9.29-5.87-12.23a17.91,17.91,0,0,0-12.16-4.28c-16.79,0-20.78,19.43-20.78,30.58,0,11.45,4.09,28.24,18.91,28.24,8.06,0,10.27-2.52,10.27-10.94V253.51l-8-1.2v-3.19H95.38v3.19Z"/><path d="M307.25,280.88c-4.53,0-7.6-.87-9.27-5.51-3.08,4.64-9.09,5.95-13.54,5.95-8.05,0-15.52-3.44-15.52-12.34,0-14.24,18.47-14.38,28.62-14.38v-5.48c0-5.32-2.5-7.4-8.13-7.4a34.48,34.48,0,0,0-11.08,2.37v-5.32a52.25,52.25,0,0,1,15.19-2.29c4.09,0,9.77.85,12.85,3.81,3.31,3.16,3.18,7.11,3.18,11.43v19.55c0,3.44,1,6.17,4.47,6.17,3,0,6.17-.29,9.1-.56V227.55c0-3.51,0-6.47-4.29-6.47-.77,0-1.55.07-2.38.15v-2.8c3-.7,6-1.51,9.08-2.28,2.72-.73,5-1.61,6.67-1.61,3.46,0,2.94,4.39,2.94,6.84V272c0,4.67,2.72,4.9,9.9,5.46v2.88C332.39,280.32,319.9,280.88,307.25,280.88Zm-9.71-22.12c-6.4,0-15.64,1.15-15.64,10,0,4.47,2,7.27,6.7,7.27a8.89,8.89,0,0,0,7.95-5.76,17.43,17.43,0,0,0,1-6.69Z"/><path d="M181.93,205c-4.62,0-7.65-.86-9.3-5.53-3.09,4.67-9.11,6-13.62,6-8,0-15.53-3.46-15.53-12.37,0-14.24,18.5-14.44,28.73-14.44v-5.47c0-5.32-2.57-7.33-8.19-7.33a35.53,35.53,0,0,0-11.08,2.3v-5.31a54.73,54.73,0,0,1,15.27-2.25c4,0,9.75.8,12.85,3.75,3.23,3.17,3.07,7.18,3.07,11.51v19.48c0,3.45,1,6.25,4.54,6.25a78.78,78.78,0,0,0,9.14-.65V151.65c0-3.52-.08-6.45-4.35-6.45-.77,0-1.55.15-2.34.21v-2.89c3-.71,6-1.5,9-2.29,2.72-.71,5-1.59,6.76-1.59,3.38,0,2.91,4.46,2.91,6.83v50.6c0,4.7,2.68,4.9,9.93,5.55v2.8C207,204.42,194.56,205,181.93,205Zm-9.72-22.12c-6.48,0-15.73,1.13-15.73,10,0,4.45,2,7.33,6.66,7.33a8.77,8.77,0,0,0,8-5.81,17.34,17.34,0,0,0,1.08-6.7Z"/><path d="M235.26,257.81l-29,.44c.25,10.65,4.75,17.64,16.18,17.64a33.26,33.26,0,0,0,9.44-1.52v3.74A33.83,33.83,0,0,1,217,281.26c-13.49,0-23.92-8.83-23.92-22.66,0-13.64,10.2-22.05,23.43-22.05,10.56,0,18.91,7.25,18.91,18A29.46,29.46,0,0,1,235.26,257.81Zm-19.17-17.07c-6.81,0-9.41,7.88-9.7,13.57L218,253.15c3-.3,4.88-.71,4.88-4.24C222.85,244.88,220.48,240.74,216.09,240.74Z"/><path d="M147.5,164.81a11.5,11.5,0,0,0-6.76-2.72c-1.94,0-2.9,2-3.53,3.51a13.56,13.56,0,0,1,4.54,10c0,10.4-8.49,16.47-18.34,16.47a24.65,24.65,0,0,1-6.1-.58,11.12,11.12,0,0,1-4.38,3.31c.13,2.1,2.51,2.22,4.09,2.22,3.44,0,6.84-.27,10.2-.27,7.55,0,16,2.31,16,11.34,0,12.74-12.85,18-23.77,18-7.62,0-19.64-3.46-19.64-12.91,0-4.33,3.46-7.2,7-8.86-3-1.78-3.88-5.18-3.88-8.48a12.63,12.63,0,0,1,.15-1.73c2.95-.35,8.48-1.79,10.37-4.09-5.94-2.31-9.31-6.91-9.31-13.3,0-10.86,9.36-16.12,19.2-16.12,3.68,0,8,.88,11.13,3,1.16-4.5,4.69-7.68,9.45-7.68,1.92,0,6,.58,6,3.23A9.09,9.09,0,0,1,147.5,164.81Zm-24.8.35c-5.18,0-7.4,4.17-7.4,9.7,0,6.42,1.64,12.74,8,12.74,5.19,0,7.25-4,7.25-9.63C130.59,172,129,165.16,122.7,165.16Zm3.22,41.27c-3.75,0-5.55.37-9.27.37a22.84,22.84,0,0,1-6.54-.79,7.14,7.14,0,0,0-2.45,4.67c0,5.95,5.77,8.19,14.12,8.19,9.38,0,15-3,15-7.55C136.78,206.3,130,206.43,125.92,206.43Z"/><path d="M100.14,182.36l-29,.42c.29,10.57,4.74,17.62,16.25,17.62a32,32,0,0,0,9.36-1.52v3.69A32.57,32.57,0,0,1,82,205.73c-13.52,0-23.93-8.79-23.93-22.59S68.16,161,81.37,161c10.66,0,18.94,7.26,18.94,18C100.31,180.13,100.23,181.28,100.14,182.36ZM81,165.16c-6.75,0-9.43,8-9.71,13.59l11.59-1.07c3-.29,4.9-.81,4.9-4.25C87.73,169.4,85.35,165.16,81,165.16Z"/><path d="M138.64,257.81l-29,.44c.31,10.65,4.77,17.64,16.28,17.64a32.77,32.77,0,0,0,9.32-1.52v3.74a33.58,33.58,0,0,1-14.74,3.15c-13.51,0-23.92-8.83-23.92-22.66,0-13.64,10.1-22.05,23.35-22.05,10.62,0,18.91,7.25,18.91,18C138.8,255.6,138.72,256.76,138.64,257.81Zm-19.17-17.07c-6.76,0-9.41,7.88-9.65,13.57l11.54-1.16c3-.3,4.87-.71,4.87-4.24C126.23,244.88,123.86,240.74,119.47,240.74Z"/><path d="M55.86,185.92H52.69c-3,12.84-7.34,14-20.18,14-8.17,0-9.33-.66-9.33-6.17V143.57l9.33-1.5v-2.84H0v2.84c7.67.16,9.5,1.66,9.5,7.67v50L0,201.59v2.83H54.19Z"/></g></g></g></svg>