<?xml version="1.0" encoding="UTF-8"?><svg id="Layer_2" xmlns="http://www.w3.org/2000/svg" viewBox="0 0 283.46 99.43"><defs><style>.cls-1{fill:#1c1b1a;}</style></defs><g id="Layer_1-2"><g><path class="cls-1" d="M154.19,94.34l-1.88-4.81h-6.06l-1.86,4.81h-1.78l5.98-15.18h1.48l5.95,15.18h-1.82Zm-2.43-6.39l-1.76-4.68c-.23-.59-.46-1.32-.7-2.18-.15,.66-.37,1.39-.65,2.18l-1.78,4.68h4.89Z"/><path class="cls-1" d="M178.14,94.34h-3.65l-2.05-7.94c-.08-.28-.21-.87-.39-1.75s-.29-1.48-.32-1.78c-.04,.37-.14,.97-.31,1.79-.17,.82-.29,1.41-.38,1.76l-2.04,7.92h-3.64l-3.86-15.12h3.15l1.93,8.25c.34,1.52,.58,2.84,.73,3.96,.04-.39,.14-1,.28-1.83,.15-.82,.29-1.46,.42-1.92l2.2-8.47h3.03l2.2,8.47c.1,.38,.22,.96,.36,1.74s.25,1.45,.33,2.01c.07-.54,.18-1.21,.33-2.01,.15-.8,.29-1.45,.41-1.95l1.92-8.25h3.15l-3.85,15.12Z"/><path class="cls-1" d="M183.5,79.79c0-1.03,.57-1.54,1.72-1.54s1.72,.51,1.72,1.54c0,.49-.14,.87-.43,1.14-.29,.27-.71,.41-1.29,.41-1.14,0-1.72-.52-1.72-1.55Zm3.29,14.55h-3.15v-11.56h3.15v11.56Z"/><path class="cls-1" d="M193.25,94.34h-3.15v-16.09h3.15v16.09Z"/><path class="cls-1" d="M201.79,94.55c-1.86,0-3.32-.51-4.36-1.54-1.05-1.03-1.57-2.48-1.57-4.36s.48-3.43,1.45-4.49c.97-1.06,2.31-1.59,4.02-1.59s2.91,.46,3.82,1.4,1.36,2.22,1.36,3.86v1.53h-7.45c.03,.9,.3,1.6,.8,2.1,.5,.5,1.19,.75,2.09,.75,.7,0,1.35-.07,1.97-.22s1.27-.38,1.94-.69v2.44c-.55,.28-1.14,.48-1.77,.62-.63,.13-1.39,.2-2.29,.2Zm-.45-9.74c-.67,0-1.19,.21-1.57,.64-.38,.42-.6,1.03-.65,1.8h4.42c-.01-.78-.22-1.38-.61-1.8-.39-.42-.92-.64-1.59-.64Z"/><path class="cls-1" d="M207.42,82.78h3.45l2.18,6.5c.19,.57,.31,1.23,.38,2.01h.06c.08-.71,.22-1.38,.44-2.01l2.14-6.5h3.38l-4.89,13.04c-.45,1.21-1.09,2.11-1.92,2.71-.83,.6-1.8,.9-2.91,.9-.54,0-1.08-.06-1.6-.18v-2.5c.38,.09,.79,.13,1.24,.13,.56,0,1.05-.17,1.46-.51,.42-.34,.74-.86,.98-1.54l.19-.57-4.59-11.48Z"/><path class="cls-1" d="M227.04,79.22h4.27c2.01,0,3.46,.3,4.35,.9s1.34,1.55,1.34,2.84c0,.9-.25,1.63-.75,2.22-.5,.58-1.23,.96-2.19,1.13v.1c2.29,.39,3.44,1.6,3.44,3.62,0,1.35-.46,2.41-1.37,3.16-.91,.76-2.19,1.14-3.83,1.14h-5.27v-15.12Zm1.76,6.47h2.89c1.24,0,2.13-.19,2.68-.58,.54-.39,.82-1.05,.82-1.97,0-.85-.3-1.46-.91-1.84-.61-.38-1.57-.56-2.89-.56h-2.58v4.95Zm0,1.49v5.66h3.15c1.22,0,2.14-.24,2.76-.71,.62-.47,.92-1.21,.92-2.22,0-.94-.32-1.63-.95-2.07-.63-.44-1.59-.66-2.88-.66h-3.01Z"/><path class="cls-1" d="M245.67,82.8c.5,0,.96,.04,1.35,.12l-.24,1.59c-.47-.1-.88-.16-1.24-.16-.92,0-1.7,.37-2.35,1.12-.65,.74-.98,1.67-.98,2.78v6.08h-1.72v-11.33h1.42l.2,2.1h.08c.42-.74,.93-1.31,1.52-1.71,.59-.4,1.24-.6,1.95-.6Z"/><path class="cls-1" d="M256.12,94.34l-.34-1.61h-.08c-.57,.71-1.13,1.19-1.69,1.44-.56,.25-1.26,.38-2.1,.38-1.12,0-2-.29-2.64-.87-.64-.58-.96-1.4-.96-2.47,0-2.29,1.83-3.49,5.49-3.6l1.92-.06v-.7c0-.89-.19-1.55-.57-1.97s-.99-.64-1.83-.64c-.95,0-2.01,.29-3.21,.87l-.53-1.31c.56-.3,1.17-.54,1.84-.71,.67-.17,1.33-.26,2-.26,1.35,0,2.35,.3,3,.9s.98,1.56,.98,2.88v7.73h-1.27Zm-3.88-1.21c1.07,0,1.91-.29,2.52-.88s.92-1.41,.92-2.46v-1.02l-1.72,.07c-1.37,.05-2.35,.26-2.95,.64-.6,.38-.91,.96-.91,1.75,0,.62,.19,1.09,.56,1.42,.38,.32,.9,.49,1.58,.49Z"/><path class="cls-1" d="M268.68,94.34v-7.33c0-.92-.21-1.61-.63-2.07-.42-.46-1.08-.68-1.97-.68-1.19,0-2.05,.32-2.61,.96-.55,.64-.83,1.7-.83,3.17v5.95h-1.72v-11.33h1.4l.28,1.55h.08c.35-.56,.84-.99,1.48-1.3,.63-.31,1.34-.46,2.12-.46,1.36,0,2.39,.33,3.08,.99,.69,.66,1.03,1.71,1.03,3.16v7.39h-1.72Z"/><path class="cls-1" d="M281.63,92.82h-.09c-.79,1.15-1.98,1.73-3.56,1.73-1.48,0-2.63-.51-3.46-1.52-.82-1.01-1.24-2.45-1.24-4.32s.41-3.32,1.24-4.35c.83-1.03,1.98-1.55,3.45-1.55s2.72,.56,3.54,1.68h.13l-.07-.82-.04-.8v-4.61h1.72v16.09h-1.4l-.23-1.52Zm-3.43,.29c1.17,0,2.02-.32,2.55-.96s.79-1.67,.79-3.09v-.36c0-1.61-.27-2.75-.8-3.44-.53-.69-1.39-1.03-2.56-1.03-1.01,0-1.78,.39-2.31,1.17s-.8,1.89-.8,3.31,.26,2.54,.8,3.28c.53,.74,1.31,1.11,2.34,1.11Z"/></g><path class="cls-1" d="M82.7,47.38c-7.83,0-14.18-6.34-14.18-14.16s6.35-14.15,14.18-14.15,14.17,6.34,14.17,14.15-6.35,14.16-14.17,14.16m9.88-31.56h0c-2.92-1.66-6.28-2.61-9.87-2.61-11.06,0-20.04,8.96-20.04,20.01s8.97,20.02,20.04,20.02c3.59,0,6.95-.95,9.87-2.61h0c8.28-4.78,10.14-1.86,10.14-1.86V17.68s-1.86,2.92-10.14-1.86"/><path class="cls-1" d="M115.16,33.22c0-7.81,6.34-14.16,14.16-14.16s14.17,6.34,14.17,14.16-6.34,14.16-14.17,14.16-14.16-6.34-14.16-14.16M149.33,0c-.37,.06-6.01,.89-6.2,6v12.75c-3.58-3.42-8.44-5.54-13.81-5.54-11.05,0-20.03,8.96-20.03,20.01s8.97,20.02,20.03,20.02c3.6,0,6.96-.95,9.88-2.61,8.28-4.78,10.15-1.86,10.15-1.86V0h-.02Z"/><path class="cls-1" d="M49.81,52.44h0s6.27-.73,6.27-6.24V28.65c0-8.54-6.96-15.49-15.5-15.49-5.08,0-9.59,2.45-12.42,6.24-2.95-3.79-7.59-6.24-12.68-6.24-3.57,0-6.87,1.21-9.49,3.26,0,0-3.44,2.97-6,1.26V52.44s6.22-.73,6.27-6.17V28.65c0-5.31,3.92-9.62,9.22-9.62s9.53,4.23,9.62,9.46v23.94h0s6.19-.72,6.28-6.13V28.65s0-.1,0-.13c.07-5.25,3.94-9.49,9.21-9.49s9.22,4.3,9.22,9.62v23.79Z"/><path class="cls-1" d="M267.63,33.11l15.81-19.02h-4.68c-1.49,.05-2.97,.35-4.24,1.69l-10.61,12.77-7.55-9.26c-3.54-4.26-8.38-5.15-11.55-5.2h-.78l15.81,19.36-15.84,19.06h4.24c1.63,0,3.35-.31,4.76-1.79l10.56-12.71,7.63,9.36c3.71,4.37,9.05,5.08,11.64,5.14h.63l-15.84-19.4Z"/><path class="cls-1" d="M175.88,47.38c-7.83,0-13.94-6.34-13.94-14.16s6.11-14.16,13.94-14.16,14.17,6.34,14.17,14.16-6.33,14.16-14.17,14.16m20.03-29.7s-1.87,2.91-10.15-1.86h0c-2.92-1.66-6.27-2.61-9.87-2.61-11.06,0-20.02,8.96-20.02,20.01s8.96,20.02,20.02,20.02c5.54,0,10.54-2.24,14.16-5.87v1.23c-.01,.98-.13,2.4-.36,3.4-1.77,7.62-9.37,12.37-16.99,10.62-1.79-.42-3.48-1.18-5.01-2.25-.44-.3-3.59-2.46-7.66,.68,2.91,3.77,6.95,6.25,11.35,7.26h0c10.79,2.5,21.54-4.22,24.02-14.98,.34-1.44,.5-2.88,.51-4.3v-15.56c0-.08,0-.16,0-.24v-15.54Z"/><path class="cls-1" d="M222.23,19.04c6.57,0,12.14,4.59,13.3,11.07h-26.91c1.39-6.48,6.51-11.07,13.61-11.07m13.26,17.11s3.24,.12,4.77-1.53c1.36-1.44,1.2-2.66,1.21-3.67,0,0,.02-1.9-.8-4.53-.03-.15-.08-.31-.14-.48-.17-.46-.35-.91-.54-1.34-.04-.1-.07-.19-.12-.28-.09-.21-.36-.79-.41-.88-1.14-2.24-2.56-4.03-4.14-5.45-.02-.03-.05-.04-.07-.07-.17-.15-.36-.3-.54-.45-2.6-2.18-6.54-3.62-10.12-4.08-.79-.1-1.55-.17-2.24-.17-.05,0-.08,0-.12,0-.05,0-.09,0-.13,0h0c-11.53,.13-19.65,8.72-19.65,20.09s8.97,19.99,19.98,19.99c6.97,0,13.4-3.57,17.19-9.54-4.59-2.49-7.06-.44-7.7,.17-2.62,2.28-5.95,3.58-9.49,3.58-6.85,0-12.57-4.89-13.88-11.37h26.92Z"/></g></svg>